Coordinates
version=1
nRows=8
nColumns=36
inDegrees=yes

Units are S.I. units (second, meters, Newtons, ...)
If the header above contains a line with 'inDegrees', this indicates whether rotational values are in degrees (yes) or radians (no).

endheader
time	pelvis_tilt	pelvis_list	pelvis_rotation	pelvis_tx	pelvis_ty	pelvis_tz	hip_flexion_r	hip_adduction_r	hip_rotation_r	knee_angle_r	knee_angle_r_beta	ankle_angle_r	subtalar_angle_r	mtp_angle_r	hip_flexion_l	hip_adduction_l	hip_rotation_l	knee_angle_l	knee_angle_l_beta	ankle_angle_l	subtalar_angle_l	mtp_angle_l	lumbar_extension	lumbar_bending	lumbar_rotation	arm_flex_r	arm_add_r	arm_rot_r	elbow_flex_r	pro_sup_r	arm_flex_l	arm_add_l	arm_rot_l	elbow_flex_l	pro_sup_l
      3.90000000	    -38.39870094	      2.23372825	     -1.45074043	      1.55756884	      0.52583648	      0.11039314	    114.84825786	    -23.36223393	      6.33503186	    106.92563486	      1.86620438	     36.03930095	    -12.55933604	     -7.49999987	    116.44853032	    -15.27032371	     10.41164409	    103.58074652	      1.80782507	     28.40340517	    -10.94293950	     -7.49999987	    -23.27564465	      4.39022513	      3.87764785	     92.84882328	     -5.93911564	     79.16721634	    145.56059404	     98.27958958	     98.09118553	     14.21466847	     58.26284522	    123.77091400	    105.95507439
      3.91666670	    -38.10538229	      2.24822825	     -1.49468586	      1.56217510	      0.53241795	      0.10799234	    113.71673394	    -23.16956138	      6.20485870	    106.20152101	      1.85356621	     35.96778502	    -12.68320884	     -7.49999987	    115.31380993	    -15.24130427	     10.30907278	    103.02618375	      1.79814612	     28.75291120	    -11.15465047	     -7.49999987	    -22.81791370	      4.30050343	      3.31388786	     91.79323926	     -6.07742724	     79.77769920	    145.79000393	     98.26590407	     97.30984332	     14.13094605	     58.34944902	    124.02707571	    105.78551354
      3.93333330	    -38.07851921	      2.41797065	     -1.50857088	      1.56985616	      0.53985074	      0.10861179	    112.75994639	    -22.93948763	      6.24168674	    105.35157178	      1.83873180	     35.78651584	    -12.91771490	     -7.49999987	    114.18214721	    -15.20675938	     10.02762957	    102.33109222	      1.78601449	     29.18509100	    -11.29119487	     -7.49999987	    -21.59248883	      4.18098123	      3.10235562	     90.49568760	     -6.60084750	     78.23554129	    146.20125325	     98.65420653	     95.96662607	     14.22158462	     57.35392204	    124.11018571	    105.68704716
      3.95000000	    -37.88120474	      2.62746020	     -1.63019684	      1.58366883	      0.55875245	      0.10118354	    111.02079309	    -22.78252321	      6.09777333	    103.92375570	      1.81381171	     35.57772967	    -13.15289619	     -7.49999987	    112.27051339	    -15.10309828	      9.64912523	    101.16352007	      1.76563651	     29.83165871	    -11.36572169	     -7.49999987	    -21.21178951	      4.48869951	      2.65534313	     89.26575049	     -8.05242823	     76.50450077	    147.08108067	     96.65270059	     93.80433290	     13.69369389	     58.66455665	    125.32530036	    103.27844817
      3.96666670	    -37.94412203	      2.97291048	     -1.71809583	      1.58671922	      0.57015191	      0.09858073	    109.32292774	    -22.58299783	      6.09686029	    102.16018756	      1.78303164	     35.09549835	    -13.80226726	     -7.49999987	    110.25269205	    -14.99053932	      8.98898376	     99.71786429	      1.74040505	     30.51396011	    -11.54051503	     -7.49999987	    -19.89709294	      4.36266256	      2.15829392	     86.05346986	     -8.66294999	     73.37005122	    147.66021020	     97.44098994	     91.61054087	     13.33030469	     59.38340663	    126.33286274	    103.82541763
      3.98333330	    -37.39072677	      3.18214613	     -1.85278107	      1.59828046	      0.58143469	      0.10992085	    106.56330798	    -22.25760048	      5.88567290	    100.23876398	      1.74949647	     34.93506423	    -13.97936469	     -7.49999987	    107.32203885	    -14.93762675	      8.51159665	     98.05844357	      1.71144270	     31.31551668	    -11.65032976	     -7.49999987	    -19.21810351	      4.15242349	      2.29796580	     83.22581436	     -8.59094384	     68.78579654	    147.37862715	    108.31173877	     89.60025822	     12.16698291	     58.72709523	    127.41070686	    108.71638121
      4.00000000	    -36.75412289	      3.31713717	     -2.11861849	      1.60839323	      0.59299240	      0.11343376	    103.55671585	    -21.76342935	      5.54713081	     98.20687547	      1.71403333	     34.82891054	    -14.22445662	     -7.49999987	    104.16982744	    -15.09580232	      8.11426648	     96.23206526	      1.67956638	     32.01242261	    -11.86799990	     -7.49999987	    -18.03749157	      3.73871127	      2.22059148	     81.03823897	     -7.25937743	     68.64228230	    147.84314839	    108.04031750	     87.49801151	     11.72126977	     58.95192290	    129.33422051	    108.21152987
      4.01666670	    -36.28711035	      3.55036901	     -2.33825951	      1.60731942	      0.60643409	      0.11891516	    100.80726732	    -21.18764214	      5.27952094	     96.10269782	      1.67730850	     34.47605509	    -14.73166312	     -7.49999987	    101.22616804	    -15.45062426	      7.47514920	     94.26131088	      1.64517023	     32.62362515	    -11.68510025	     -7.49999987	    -16.97825690	      3.45097009	      1.74049550	     79.46346786	     -5.08676432	     73.12161492	    145.94014784	    108.83891020	     85.02894805	      9.55623338	     57.98193732	    131.41182294	    107.73400803
